<svg width="50" height="50" viewBox="0 0 50 50" fill="none" xmlns="http://www.w3.org/2000/svg">
<g id="ph:dots-three-outline-fill">
<path id="Vector" d="M30.4688 25C30.4688 26.0816 30.148 27.1389 29.5471 28.0383C28.9462 28.9376 28.0921 29.6385 27.0928 30.0525C26.0935 30.4664 24.9939 30.5747 23.9331 30.3637C22.8723 30.1527 21.8978 29.6318 21.133 28.867C20.3682 28.1022 19.8473 27.1277 19.6363 26.0669C19.4253 25.0061 19.5336 23.9065 19.9475 22.9072C20.3615 21.9079 21.0624 21.0538 21.9617 20.4529C22.8611 19.852 23.9184 19.5312 25 19.5312C26.4488 19.5364 27.8368 20.1142 28.8613 21.1387C29.8858 22.1632 30.4636 23.5512 30.4688 25ZM9.375 19.5312C8.29339 19.5312 7.23606 19.852 6.33673 20.4529C5.4374 21.0538 4.73645 21.9079 4.32254 22.9072C3.90862 23.9065 3.80032 25.0061 4.01133 26.0669C4.22235 27.1277 4.74319 28.1022 5.50801 28.867C6.27283 29.6318 7.24727 30.1527 8.3081 30.3637C9.36894 30.5747 10.4685 30.4664 11.4678 30.0525C12.4671 29.6385 13.3212 28.9376 13.9221 28.0383C14.523 27.1389 14.8438 26.0816 14.8438 25C14.8386 23.5512 14.2608 22.1632 13.2363 21.1387C12.2118 20.1142 10.8238 19.5364 9.375 19.5312ZM40.625 19.5312C39.5434 19.5312 38.4861 19.852 37.5867 20.4529C36.6874 21.0538 35.9865 21.9079 35.5725 22.9072C35.1586 23.9065 35.0503 25.0061 35.2613 26.0669C35.4723 27.1277 35.9932 28.1022 36.758 28.867C37.5228 29.6318 38.4973 30.1527 39.5581 30.3637C40.6189 30.5747 41.7185 30.4664 42.7178 30.0525C43.7171 29.6385 44.5712 28.9376 45.1721 28.0383C45.773 27.1389 46.0938 26.0816 46.0938 25C46.0886 23.5512 45.5108 22.1632 44.4863 21.1387C43.4618 20.1142 42.0738 19.5364 40.625 19.5312Z" fill="white"/>
</g>
</svg>
